<svg width="130" height="24" viewBox="0 0 130 24" fill="none" xmlns="http://www.w3.org/2000/svg">
<g clip-path="url(#clip0_112_7993)">
<path d="M0 0H7.30811V23.6302H0V0Z" fill="white"/>
<path d="M12.1045 6.50669H18.2092V9.27998C18.9581 8.28613 19.8992 7.45372 20.9761 6.83244C22.0311 6.33053 23.1907 6.08902 24.3579 6.12811C25.1403 6.08363 25.9233 6.20491 26.6558 6.48403C27.3883 6.76315 28.0539 7.19385 28.6092 7.74807C29.6281 8.83391 30.1376 10.5008 30.1376 12.7488V23.6307H23.5761V14.2279C23.6581 13.4122 23.4463 12.594 22.9788 11.9212C22.7673 11.6954 22.5091 11.5186 22.2224 11.403C21.9357 11.2875 21.6273 11.236 21.3187 11.2521C20.9518 11.2383 20.5867 11.3107 20.2527 11.4636C19.9187 11.6165 19.625 11.8456 19.395 12.1325C18.789 13.1231 18.5294 14.2879 18.6572 15.4429V23.6307H12.1045V6.50669Z" fill="white"/>
<path d="M46.8002 16.9044L53.0367 17.5999C52.7265 18.839 52.1511 19.9956 51.3502 20.9895C50.541 21.9583 49.5146 22.7216 48.3549 23.2169C46.878 23.7914 45.3005 24.0609 43.7171 24.0093C42.1904 24.0405 40.6663 23.8688 39.1847 23.4986C38.0399 23.1906 36.9777 22.6313 36.0752 21.8611C35.2233 21.1271 34.5272 20.2289 34.0286 19.2198C33.4863 17.9413 33.2343 16.558 33.2907 15.17C33.2264 13.6532 33.5277 12.1432 34.1691 10.7679C34.6071 9.89402 35.2027 9.10897 35.9259 8.45242C36.6138 7.81476 37.4075 7.30231 38.2711 6.93811C39.8386 6.35956 41.503 6.09049 43.1725 6.14574C45.9599 6.14574 48.0856 6.64464 49.5495 7.64244C51.0546 8.7061 52.1419 10.263 52.6239 12.0445L46.4752 12.8633C46.3419 12.1939 45.9743 11.5944 45.4387 11.1729C44.8327 10.7746 44.1158 10.5803 43.3921 10.6182C42.8938 10.6 42.3979 10.6951 41.9415 10.8964C41.4852 11.0976 41.0802 11.3999 40.757 11.7804C40.018 12.7982 39.6661 14.0471 39.7644 15.302C39.6805 16.452 40.0353 17.5911 40.757 18.4891C41.0751 18.8426 41.4661 19.1226 41.9029 19.3095C42.3398 19.4965 42.8119 19.5861 43.2867 19.572C44.0716 19.6236 44.851 19.4096 45.5002 18.9645C46.1402 18.433 46.5953 17.7117 46.8002 16.9044Z" fill="white"/>
<path d="M63.9458 0V6.50624H67.5559V11.3133H63.9458V17.3617C63.904 17.8528 63.9762 18.347 64.1566 18.8056C64.2769 18.9924 64.4464 19.1423 64.6464 19.2386C64.8463 19.3349 65.069 19.374 65.2897 19.3514C65.9814 19.3232 66.6651 19.1926 67.3188 18.9641L67.8019 23.4982C66.3144 23.8383 64.795 24.0183 63.2694 24.0352C62.033 24.1015 60.7986 23.8722 59.6681 23.3661C58.8775 22.9591 58.2555 22.2857 57.9113 21.4644C57.4699 20.129 57.2821 18.7224 57.358 17.3177V11.3133H54.9863V6.50624H57.4019V3.36317L63.9458 0Z" fill="white"/>
<path d="M88.664 23.6298H82.5153V20.8478C81.777 21.8435 80.8371 22.6715 79.7572 23.2777C78.6939 23.7946 77.5215 24.0453 76.3403 24.0084C75.5609 24.0498 74.7814 23.9271 74.0522 23.6481C73.3229 23.3691 72.6602 22.94 72.1065 22.3885C71.111 21.2792 70.6133 19.6152 70.6133 17.3965V6.50586H77.1923V15.9175C77.1176 16.7271 77.329 17.5372 77.7896 18.2065C77.9993 18.4353 78.2568 18.6148 78.5439 18.732C78.8309 18.8492 79.1403 18.9013 79.4498 18.8844C79.8152 18.8968 80.1786 18.8237 80.5109 18.6709C80.8433 18.5181 81.1356 18.2898 81.3646 18.004C81.9616 17.0355 82.2239 15.8969 82.1112 14.7641V6.50586H88.664V23.6298Z" fill="white"/>
<path d="M92.7129 6.50575H98.8615V9.27905C99.2641 8.31449 99.8869 7.45808 100.68 6.77868C101.362 6.30525 102.178 6.06448 103.007 6.09196C104.117 6.12606 105.202 6.42809 106.17 6.97237L104.149 11.6474C103.572 11.3759 102.95 11.2118 102.314 11.1631C101.917 11.1503 101.525 11.242 101.175 11.4289C100.825 11.6159 100.53 11.8915 100.32 12.2284C99.6462 13.2321 99.3095 15.1015 99.3095 17.8366V23.6297H92.7305L92.7129 6.50575Z" fill="white"/>
<path d="M126.767 16.684H113.591C113.646 17.5374 113.951 18.3555 114.47 19.0347C114.772 19.3952 115.152 19.6823 115.581 19.8744C116.01 20.0666 116.477 20.1587 116.947 20.144C117.591 20.142 118.224 19.9721 118.783 19.651C119.225 19.3618 119.612 18.9949 119.925 18.5681L126.381 19.1668C125.562 20.7183 124.323 22.0063 122.806 22.8821C120.927 23.7318 118.873 24.1183 116.815 24.009C114.986 24.0896 113.162 23.7618 111.475 23.0494C110.132 22.3627 109.014 21.3058 108.251 20.0032C107.376 18.5204 106.935 16.8212 106.977 15.0993C106.93 13.8968 107.136 12.6978 107.581 11.58C108.026 10.4623 108.7 9.45063 109.56 8.61064C111.264 6.95546 113.624 6.12788 116.639 6.12788C118.629 6.03533 120.613 6.41543 122.428 7.2372C123.814 7.94724 124.944 9.07388 125.66 10.4595C126.468 12.1709 126.851 14.0527 126.776 15.9445L126.767 16.684ZM120.1 13.5409C120.075 12.5488 119.713 11.5951 119.073 10.8381C118.742 10.5474 118.355 10.327 117.937 10.1899C117.519 10.0529 117.077 10.0022 116.639 10.0409C116.201 10.0796 115.775 10.2068 115.387 10.4149C114.999 10.623 114.657 10.9078 114.382 11.2519C113.928 11.9322 113.667 12.7234 113.627 13.5409H120.1Z" fill="white"/>
<path d="M124.316 4.2168C124.315 3.71747 124.445 3.22653 124.693 2.79365C124.941 2.36077 125.299 2.00132 125.731 1.75165C126.154 1.50082 126.635 1.36432 127.127 1.35547C127.501 1.35547 127.87 1.42931 128.215 1.57277C128.56 1.71623 128.873 1.92649 129.137 2.19149C129.4 2.45649 129.609 2.77101 129.751 3.11705C129.893 3.46308 129.966 3.83382 129.964 4.208C129.964 4.69758 129.84 5.1791 129.604 5.60785C129.223 6.25985 128.6 6.73412 127.871 6.92711C127.142 7.1201 126.366 7.01615 125.713 6.63793C125.282 6.38907 124.926 6.0268 124.685 5.59025C124.445 5.17236 124.318 4.69898 124.316 4.2168ZM124.782 4.2168C124.78 4.63697 124.889 5.05023 125.098 5.41416C125.31 5.77911 125.612 6.08255 125.977 6.29457C126.324 6.50791 126.72 6.6263 127.127 6.63793C127.546 6.64037 127.959 6.53098 128.322 6.32099C128.683 6.11388 128.983 5.81369 129.19 5.45148C129.397 5.08926 129.504 4.6782 129.499 4.26082C129.5 3.84076 129.391 3.42773 129.183 3.06347C128.976 2.69457 128.672 2.38991 128.304 2.18305C127.943 1.97528 127.535 1.86594 127.118 1.86594C126.702 1.86594 126.293 1.97528 125.933 2.18305C125.568 2.3941 125.265 2.69776 125.054 3.06347C124.865 3.41772 124.771 3.81519 124.782 4.2168ZM128.295 3.53889C128.307 3.72871 128.256 3.91705 128.152 4.07575C128.047 4.23445 127.894 4.35498 127.716 4.4193L128.594 5.9248H127.795L127.127 4.61299H126.785V5.9248H126.073V2.50881H127.057C127.399 2.47719 127.741 2.56761 128.023 2.76413C128.126 2.86341 128.206 2.98453 128.256 3.11858C128.306 3.25264 128.325 3.39625 128.313 3.53889H128.295ZM126.75 4.06713H127.013C127.165 4.07784 127.316 4.03069 127.435 3.93507C127.484 3.88618 127.523 3.82692 127.547 3.76149C127.571 3.69606 127.581 3.62607 127.575 3.5565C127.583 3.48751 127.576 3.41757 127.553 3.35198C127.53 3.28639 127.493 3.22687 127.443 3.17792C127.314 3.09151 127.159 3.0512 127.004 3.06347H126.75V4.06713Z" fill="white"/>
</g>
<defs>
<clipPath id="clip0_112_7993">
<rect width="130" height="24" fill="white"/>
</clipPath>
</defs>
</svg>
